<?xml version="1.0" encoding="UTF-8"?>
<!DOCTYPE svg PUBLIC "-//W3C//DTD SVG 1.1//EN" "http://www.w3.org/Graphics/SVG/1.1/DTD/svg11.dtd">
<!-- Creator: CorelDRAW 2018 (64-Bit OEM Version) -->
<svg xmlns="http://www.w3.org/2000/svg" xml:space="preserve" width="458mm" height="305mm" version="1.1" style="shape-rendering:geometricPrecision; text-rendering:geometricPrecision; image-rendering:optimizeQuality; fill-rule:evenodd; clip-rule:evenodd"
viewBox="0 0 45800 30500"
 xmlns:xlink="http://www.w3.org/1999/xlink">
 <defs>
  <style type="text/css">
   <![CDATA[
    .str0 {stroke:#1F1B20;stroke-width:7.62;stroke-miterlimit:22.9256}
    .fil0 {fill:white;fill-rule:nonzero}
   ]]>
  </style>
 </defs>
 <g id="Layer_x0020_1">
  <metadata id="CorelCorpID_0Corel-Layer"/>
  <g id="_2054541615360">
   <g>
    <g>
     <path class="fil0 str0" d="M8833.27 19596.65c-7.37,-643.69 -133.9,-781.08 -2227.77,-1351.07l159.23 2274.7c0,606.68 601.07,839.97 1215.37,1116.38 626.1,251.98 842.21,352.94 852.78,357.8l0.39 0.36 0.47 0.17c0,0 226.85,-106.35 853.01,-358.33 614.29,-276.41 1215.37,-509.7 1215.37,-1116.38l159.18 -2274.7c-2093.87,569.99 -2220.4,707.38 -2228.03,1351.07z"/>
     <path class="fil0 str0" d="M8833.52 13882c-23.26,-1978.59 -412.31,-2401.57 -6849.57,-4153.89l489.52 6993.67c0,1806.45 1734.25,2535.91 3559.41,3352.15 -573.53,-341.3 -983.09,-763.5 -983.09,-1439.69l-291.37 -4160.99c3829.87,1042.56 4061.23,1294.23 4075.1,2471.49 13.9,-1177.26 245.22,-1428.93 4074.88,-2471.49l-291.11 4160.99c0,676.19 -409.38,1098.39 -982.91,1439.69 1824.93,-816.33 3558.71,-1545.87 3558.71,-3352.15l489.77 -6993.67c-6437.07,1752.32 -6826.04,2175.3 -6849.34,4153.89z"/>
    </g>
    <g>
     <g>
      <path class="fil0 str0" d="M22905.06 14766.37c0,574 -190.96,1047.12 -572.76,1419.46 -381.84,372.33 -880.69,558.45 -1496.5,558.45 -620.35,0 -1123.14,-186.12 -1508.32,-558.45 -385.19,-372.34 -577.74,-845.46 -577.74,-1419.46l0 -838.58c0,-571.78 192.01,-1044.42 576.08,-1417.84 384.08,-373.37 885.16,-560.09 1503.24,-560.09 613.57,0 1113.01,186.72 1498.18,560.09 385.16,373.42 577.82,846.06 577.82,1417.84l0 838.58zm-1132.07 -844.97l0 0c0,-332.83 -82.32,-605.93 -246.92,-819.34 -164.56,-213.35 -396.93,-320.05 -697.01,-320.05 -306.83,0 -541.38,106.18 -703.71,318.45 -162.43,212.36 -243.54,485.98 -243.54,820.94l0 844.97c0,337.14 82.25,612.4 246.87,825.73 164.6,213.39 400.26,320.03 707.12,320.03 297.82,0 528.51,-106.64 691.97,-320.03 163.43,-213.33 245.22,-488.59 245.22,-825.73l0 -844.97z"/>
      <path class="fil0 str0" d="M27749.57 12017.07l0 3053.33c0,531.29 -185.28,943.12 -555.91,1235.43 -370.7,292.39 -856.05,438.45 -1456.21,438.45 -606.91,0 -1096.17,-146.06 -1467.89,-438.45 -371.8,-292.31 -557.66,-704.14 -557.66,-1235.43l0 -3053.33 1138.76 0 0 3053.33c0,285.96 77.24,497.71 231.73,635.35 154.56,137.59 372.9,206.38 655.06,206.38 279.98,0 495.47,-68.22 646.68,-204.82 151.1,-136.5 226.71,-348.87 226.71,-636.91l0 -3053.33 1138.73 0z"/>
      <polygon class="fil0 str0" points="32080.24,12849.22 30790.36,12849.22 30790.36,16677.12 29651.59,16677.12 29651.59,12849.22 28371.74,12849.22 28371.74,12017.07 32080.24,12017.07 "/>
      <polygon class="fil0 str0" points="33921.77,16677.12 32789.75,16677.12 32789.75,12017.07 33921.77,12017.07 "/>
     </g>
     <g>
      <g>
       <polygon class="fil0 str0" points="18514.87,19172.35 18343.64,19172.35 18343.64,19938.64 18093.63,19938.64 18093.63,18230.02 18343.64,18230.02 18343.64,18981.02 18492.7,18981.02 18966.88,18230.02 19264.95,18230.02 18700.86,19040.88 19308.02,19938.64 19002.57,19938.64 "/>
       <polygon class="fil0 str0" points="19815.73,19938.64 19566.95,19938.64 19566.95,18230.02 19815.73,18230.02 "/>
       <path class="fil0 str0" d="M20494.69 19201.73l0 736.91 -250.01 0 0 -1707.49 557.94 0c169.98,0 301.36,41.88 394.15,125.47 92.79,83.68 139.16,203.67 139.16,360.08 0,89.15 -21.52,166.92 -64.66,233.38 -43.09,66.48 -105.29,118.44 -186.59,155.97 89.46,29.03 154.17,78.12 193.99,147.38 39.79,69.33 59.73,154.82 59.73,256.58l0 149.18c0,52.41 5.56,101.15 16.64,146.16 11.08,45.09 30.18,80.46 57.26,106.28l0 27.01 -257.45 0c-27.9,-25.81 -45.76,-64.82 -53.57,-116.96 -7.79,-52.04 -11.68,-107.14 -11.68,-165.09l0 -144.59c0,-95.66 -22.82,-171.25 -68.34,-226.87 -45.6,-55.6 -108.23,-83.4 -187.87,-83.4l-338.7 0zm0 -180.74l0 0 295.61 0c101,0 175.5,-26.06 223.57,-78.2 48.02,-52.15 72.05,-126 72.05,-221.66 0,-98.01 -23.39,-174.04 -70.23,-228.09 -46.78,-54.13 -117.81,-81.16 -213.07,-81.16l-307.93 0 0 609.11z"/>
       <path class="fil0 str0" d="M22367.08 18230.02l248.79 0 0 1219.25c0,157.28 -45.14,282.22 -135.47,374.94 -90.32,92.71 -206.1,139.11 -347.37,139.11 -151.91,0 -272.39,-42.06 -361.49,-126.17 -89.1,-84.11 -131.97,-207.49 -128.69,-370.23l3.68 -7.05 240.19 0c0,107.93 21.98,188.73 65.87,242.35 43.93,53.6 104.12,80.37 180.44,80.37 67.36,0 123.21,-30.16 167.53,-90.37 44.34,-60.22 66.52,-141.2 66.52,-242.95l0 -1219.25z"/>
       <path class="fil0 str0" d="M23808.46 19506.79l-571.52 0 -130.6 431.85 -253.73 0 551.87 -1708.62 241.38 0 546.82 1708.62 -253.73 0 -130.49 -431.85zm-513.61 -188.9l0 0 456.89 0 -224.17 -746.39 -7.37 0 -225.35 746.39z"/>
       <path class="fil0 str0" d="M25276.82 19508.01c0,-80.63 -23.81,-146.76 -71.41,-198.38 -47.7,-51.61 -131.04,-96.96 -250.05,-136.15 -170.82,-49.18 -301.77,-113.48 -392.88,-192.8 -91.2,-79.25 -136.8,-184.22 -136.8,-314.73 0,-134.34 50.71,-244.77 152.12,-331.05 101.4,-86.37 231.81,-129.55 391.14,-129.55 165.79,0 299.48,49.87 400.89,149.62 101.43,99.74 150.48,220.01 147.2,360.86l-2.46 7.03 -240.21 0c0,-99.65 -26.91,-180.72 -80.71,-243.2 -53.71,-62.38 -129.5,-93.58 -227.16,-93.58 -92.86,0 -164.45,25.98 -214.97,78.03 -50.51,52.04 -75.78,118.35 -75.78,198.9 0,72.81 27.09,133.97 81.35,183.68 54.18,49.7 143.63,94.89 268.48,135.55 163.33,48.57 287.83,114.78 373.18,198.54 85.35,83.85 128.12,192.29 128.12,325.49 0,140.16 -50.51,251.47 -151.48,333.66 -101.03,82.29 -233.63,123.39 -397.88,123.39 -160.14,0 -299.95,-45.19 -419.42,-135.55 -119.46,-90.36 -177.09,-217.66 -172.99,-381.98l2.47 -7.03 240.1 0c0,116.96 32.28,203.49 96.76,259.63 64.4,56.13 148.85,84.2 253.08,84.2 93.65,0 166.89,-24.85 219.87,-74.56 52.99,-49.61 79.44,-116.34 79.44,-200.02z"/>
       <polygon class="fil0 str0" points="26896.73,18410.76 26436.1,18410.76 26436.1,19938.64 26186.04,19938.64 26186.04,18410.76 25727.87,18410.76 25727.87,18230.02 26896.73,18230.02 "/>
       <path class="fil0 str0" d="M28282.64 19320.24c0,202.63 -54.99,360.42 -165.07,473.47 -109.97,113.05 -257.35,169.61 -442.11,169.61 -182.3,0 -327.21,-56.56 -434.83,-169.61 -107.61,-113.05 -161.32,-270.84 -161.32,-473.47l0 -469.47c0,-201.85 53.99,-359.82 161.96,-474.08 107.98,-114.26 252.7,-171.34 434.19,-171.34 183.84,0 331.04,57.08 441.57,171.34 110.35,114.26 165.61,272.23 165.61,474.08l0 469.47zm-248.78 -472.95l0 0c0,-148.66 -31.19,-261.53 -93.66,-338.61 -62.38,-76.98 -150.65,-115.56 -264.74,-115.56 -112.59,0 -198.72,38.58 -258.72,115.56 -59.93,77.08 -89.92,189.95 -89.92,338.61l0 472.95c0,150.14 30.19,263.97 90.56,341.49 60.36,77.41 146.37,116.17 258.08,116.17 114.91,0 203.37,-38.5 265.37,-115.58 62.02,-77.07 93.03,-191.15 93.03,-342.08l0 -472.95z"/>
       <polygon class="fil0 str0" points="29637.81,18410.76 29177.09,18410.76 29177.09,19938.64 28927.13,19938.64 28927.13,18410.76 28468.87,18410.76 28468.87,18230.02 29637.81,18230.02 "/>
       <polygon class="fil0 str0" points="33228.39,19757.91 33927.97,19757.91 33927.97,19938.64 32978.34,19938.64 32978.34,18230.02 33228.39,18230.02 "/>
       <polygon class="fil0 str0" points="34478.8,19938.64 34230,19938.64 34230,18230.02 34478.8,18230.02 "/>
       <path class="fil0 str0" d="M34907.69 19938.64l0 -1708.62 500.13 0c169.07,0 301.12,38.32 395.96,114.96 94.85,76.72 142.28,191.68 142.28,345.04 0,81.33 -21.62,153.11 -64.67,215.32 -43.15,62.21 -102.85,107.83 -179.29,136.76 96.93,20.33 171.44,68.64 223.61,144.93 52.08,76.3 78.17,165.62 78.17,268.15 0,157.27 -46.62,277.19 -139.82,359.64 -93.2,82.55 -221.88,123.82 -386.13,123.82l-570.24 0zm250.05 -968.14l0 0 274.69 0c82.07,0 146.57,-23.81 193.35,-71.33 46.78,-47.53 70.2,-116.08 70.2,-205.59 0,-94.28 -24.43,-165.01 -73.31,-212.19 -48.9,-47.08 -120.47,-70.63 -214.85,-70.63l-250.08 0 0 559.74zm0 171.35l0 0 0 616.06 320.19 0c88.74,0 157.07,-25.98 205.12,-78.03 48.06,-52.05 72.04,-126.52 72.04,-223.57 0,-96.2 -20.52,-172.65 -61.56,-229.39 -41.04,-56.74 -104.32,-85.07 -189.7,-85.07l-346.09 0z"/>
       <path class="fil0 str0" d="M36602.76 19201.73l0 736.91 -250.06 0 0 -1707.49 557.94 0c169.99,0 301.4,41.88 394.13,125.47 92.86,83.68 139.19,203.67 139.19,360.08 0,89.15 -21.52,166.92 -64.68,233.38 -43.03,66.48 -105.22,118.44 -186.58,155.97 89.47,29.03 154.17,78.12 193.98,147.38 39.85,69.33 59.72,154.82 59.72,256.58l0 149.18c0,52.41 5.59,101.15 16.71,146.16 11.02,45.09 30.17,80.46 57.26,106.28l0 27.01 -257.44 0c-27.92,-25.81 -45.77,-64.82 -53.64,-116.96 -7.74,-52.04 -11.66,-107.14 -11.66,-165.09l0 -144.59c0,-95.66 -22.8,-171.25 -68.31,-226.87 -45.58,-55.6 -108.24,-83.4 -187.85,-83.4l-338.71 0zm0 -180.74l0 0 295.56 0c101.04,0 175.56,-26.06 223.62,-78.2 47.97,-52.15 72.03,-126 72.03,-221.66 0,-98.01 -23.42,-174.04 -70.21,-228.09 -46.78,-54.13 -117.84,-81.16 -213.12,-81.16l-307.88 0 0 609.11z"/>
       <path class="fil0 str0" d="M38662.43 19506.79l-571.54 0 -130.59 431.85 -253.69 0 551.81 -1708.62 241.4 0 546.8 1708.62 -253.69 0 -130.5 -431.85zm-513.63 -188.9l0 0 456.9 0 -224.16 -746.39 -7.4 0 -225.34 746.39z"/>
       <path class="fil0 str0" d="M39560.53 19201.73l0 736.91 -250.07 0 0 -1707.49 557.94 0c169.98,0 301.36,41.88 394.16,125.47 92.81,83.68 139.16,203.67 139.16,360.08 0,89.15 -21.53,166.92 -64.67,233.38 -43.03,66.48 -105.23,118.44 -186.58,155.97 89.46,29.03 154.2,78.12 193.98,147.38 39.84,69.33 59.74,154.82 59.74,256.58l0 149.18c0,52.41 5.54,101.15 16.68,146.16 11.04,45.09 30.19,80.46 57.26,106.28l0 27.01 -257.44 0c-27.91,-25.81 -45.79,-64.82 -53.61,-116.96 -7.77,-52.04 -11.67,-107.14 -11.67,-165.09l0 -144.59c0,-95.66 -22.83,-171.25 -68.33,-226.87 -45.58,-55.6 -108.24,-83.4 -187.85,-83.4l-338.7 0zm0 -180.74l0 0 295.56 0c101.04,0 175.54,-26.06 223.61,-78.2 47.98,-52.15 72.04,-126 72.04,-221.66 0,-98.01 -23.42,-174.04 -70.21,-228.09 -46.79,-54.13 -117.81,-81.16 -213.13,-81.16l-307.87 0 0 609.11z"/>
       <polygon class="fil0 str0" points="41070.81,19938.64 40822.05,19938.64 40822.05,18230.02 41070.81,18230.02 "/>
       <polygon class="fil0 str0" points="42414.87,19144.2 41749.68,19144.2 41749.68,19757.91 42520.75,19757.91 42520.75,19938.64 41499.72,19938.64 41499.72,18230.02 42513.37,18230.02 42513.37,18410.76 41749.68,18410.76 41749.68,18963.47 42414.87,18963.47 "/>
       <path class="fil0 str0" d="M43636.9 19508.01c0,-80.63 -23.8,-146.76 -71.4,-198.38 -47.69,-51.61 -131.05,-96.96 -250.06,-136.15 -170.82,-49.18 -301.76,-113.48 -392.88,-192.8 -91.2,-79.25 -136.79,-184.22 -136.79,-314.73 0,-134.34 50.7,-244.77 152.12,-331.05 101.4,-86.37 231.81,-129.55 391.14,-129.55 165.79,0 299.5,49.87 400.89,149.62 101.35,99.74 150.48,220.01 147.21,360.86l-2.48 7.03 -240.22 0c0,-99.65 -26.88,-180.72 -80.68,-243.2 -53.73,-62.38 -129.51,-93.58 -227.18,-93.58 -92.85,0 -164.44,25.98 -214.95,78.03 -50.52,52.04 -75.78,118.35 -75.78,198.9 0,72.81 27.07,133.97 81.33,183.68 54.17,49.7 143.64,94.89 268.48,135.55 163.35,48.57 287.84,114.78 373.18,198.54 85.35,83.85 128.15,192.29 128.15,325.49 0,140.16 -50.54,251.47 -151.49,333.66 -101.06,82.29 -233.64,123.39 -397.89,123.39 -160.14,0 -299.96,-45.19 -419.41,-135.55 -119.47,-90.36 -177.12,-217.66 -173.01,-381.98l2.42 -7.03 240.18 0c0,116.96 32.22,203.49 96.75,259.63 64.39,56.13 148.83,84.2 253.07,84.2 93.66,0 166.9,-24.85 219.88,-74.56 52.98,-49.61 79.42,-116.34 79.42,-200.02z"/>
      </g>
      <path class="fil0 str0" d="M31590.52 19220.32c0,222.18 -188.79,402.22 -421.97,402.22 -233.1,0 -421.87,-180.04 -421.87,-402.22 0,-221.92 188.77,-401.96 421.87,-401.96 233.18,0 421.97,180.04 421.97,401.96z"/>
     </g>
    </g>
   </g>
  </g>
 </g>
</svg>
