<?xml version="1.0" encoding="utf-8"?>
<!-- Generator: Adobe Illustrator 15.1.0, SVG Export Plug-In  -->
<!DOCTYPE svg PUBLIC "-//W3C//DTD SVG 1.1//EN" "http://www.w3.org/Graphics/SVG/1.1/DTD/svg11.dtd" [
	<!ENTITY ns_flows "http://ns.adobe.com/Flows/1.0/">
]>
<svg version="1.1"
	 xmlns="http://www.w3.org/2000/svg" xmlns:xlink="http://www.w3.org/1999/xlink" xmlns:a="http://ns.adobe.com/AdobeSVGViewerExtensions/3.0/"
	 x="0px" y="0px" width="992px" height="337px" viewBox="-37.594 -31.279 992 337" enable-background="new -37.594 -31.279 992 337"
	 xml:space="preserve">
<defs>
</defs>
<path fill="#FFFFFF" d="M146.689,221.824c-0.158-14.468-2.867-17.557-47.711-30.369l3.41,51.132
	c0,13.636,12.873,18.88,26.029,25.093c13.408,5.665,18.037,7.934,18.264,8.044l0.008,0.007l0.01,0.005c0,0,4.859-2.391,18.27-8.056
	c13.156-6.213,26.029-11.457,26.029-25.093l3.408-51.132C149.563,204.268,146.854,207.356,146.689,221.824z"/>
<path fill="#FFFFFF" d="M146.695,93.371C146.197,48.896,137.865,39.389,0,0l10.484,157.203c0,40.606,37.141,57.002,76.23,75.35
	c-12.283-7.671-21.055-17.162-21.055-32.361l-6.24-93.53c82.023,23.435,86.979,29.092,87.275,55.554
	c0.297-26.462,5.252-32.119,87.27-55.554l-6.234,93.53c0,15.199-8.768,24.69-21.051,32.361c39.084-18.35,76.215-34.748,76.215-75.35
	L293.385,0C155.525,39.389,147.193,48.896,146.695,93.371z"/>
<path fill="#FFFFFF" d="M397.053,114.184H385.83v42.015h-24.389V51.45h24.389v41.007h8.273l23.021-41.007h30.216l-32.446,47.41
	l35.252,57.338h-29.641L397.053,114.184z"/>
<path fill="#FFFFFF" d="M499.081,97.206h0.432l20.863-45.756h26.403l-35.611,67.914v36.834h-24.245v-38.058l-34.892-66.69h26.259
	L499.081,97.206z"/>
<path fill="#FFFFFF" d="M598.304,97.206h0.432l20.863-45.756h26.403l-35.611,67.914v36.834h-24.245v-38.058l-34.892-66.69h26.259
	L598.304,97.206z"/>
<path fill="#FFFFFF" d="M731.916,70.155H704.29v86.043h-24.389V70.155h-27.41V51.45h79.425V70.155z"/>
<path fill="#FFFFFF" d="M771.354,156.198H747.11V51.45h24.244V156.198z"/>
<path fill="#FFFFFF" d="M372.626,213.786h-4.411v20.726h-6.442v-46.211h6.442v20.313h3.841l12.219-20.313h7.681l-14.536,21.931
	l15.646,24.28h-7.871L372.626,213.786z"/>
<path fill="#FFFFFF" d="M406.147,234.512h-6.41v-46.211h6.41V234.512z"/>
<path fill="#FFFFFF" d="M423.643,214.58v19.932H417.2v-46.179h14.377c4.38,0,7.765,1.131,10.156,3.394
	c2.391,2.263,3.586,5.508,3.586,9.737c0,2.411-0.555,4.516-1.666,6.313c-1.11,1.797-2.713,3.203-4.809,4.218
	c2.307,0.784,3.973,2.113,4.999,3.986c1.026,1.874,1.54,4.188,1.54,6.939v4.033c0,1.419,0.143,2.737,0.428,3.954
	c0.286,1.218,0.777,2.176,1.477,2.874v0.73h-6.634c-0.72-0.699-1.18-1.754-1.381-3.163s-0.302-2.897-0.302-4.466v-3.91
	c0-2.586-0.587-4.631-1.761-6.136c-1.175-1.505-2.788-2.257-4.841-2.257H423.643z M423.643,209.692h7.617
	c2.603,0,4.522-0.705,5.761-2.114c1.237-1.41,1.856-3.408,1.856-5.995c0-2.649-0.603-4.705-1.81-6.168
	c-1.205-1.463-3.036-2.195-5.49-2.195h-7.935V209.692z"/>
<path fill="#FFFFFF" d="M471.892,188.301h6.41v32.976c0,4.254-1.163,7.634-3.49,10.141c-2.328,2.508-5.312,3.762-8.951,3.762
	c-3.914,0-7.02-1.138-9.314-3.412c-2.296-2.274-3.401-5.612-3.316-10.014l0.095-0.19h6.188c0,2.92,0.566,5.104,1.698,6.554
	c1.132,1.45,2.683,2.174,4.649,2.174c1.735,0,3.174-0.813,4.316-2.443c1.143-1.629,1.715-3.819,1.715-6.57V188.301z"/>
<path fill="#FFFFFF" d="M509.032,222.832h-14.727l-3.365,11.68h-6.537l14.219-46.211h6.221l14.092,46.211h-6.539L509.032,222.832z
	 M495.797,217.722h11.774l-5.775-20.186h-0.191L495.797,217.722z"/>
<path fill="#FFFFFF" d="M546.87,222.864c0-2.18-0.614-3.968-1.842-5.364c-1.227-1.396-3.375-2.623-6.442-3.682
	c-4.401-1.331-7.776-3.069-10.124-5.215c-2.35-2.145-3.523-4.981-3.523-8.511c0-3.635,1.307-6.62,3.92-8.955
	c2.612-2.336,5.972-3.504,10.076-3.504c4.274,0,7.718,1.35,10.331,4.047c2.613,2.698,3.877,5.951,3.793,9.76l-0.063,0.19h-6.189
	c0-2.696-0.692-4.889-2.078-6.577c-1.387-1.688-3.338-2.531-5.855-2.531c-2.392,0-4.237,0.703-5.539,2.11
	c-1.301,1.407-1.951,3.2-1.951,5.38c0,1.967,0.697,3.623,2.094,4.967s3.703,2.565,6.92,3.666c4.21,1.313,7.415,3.104,9.616,5.37
	c2.2,2.267,3.301,5.2,3.301,8.802c0,3.792-1.302,6.8-3.903,9.024c-2.604,2.225-6.021,3.337-10.252,3.337
	c-4.126,0-7.729-1.223-10.807-3.666c-3.079-2.444-4.565-5.888-4.459-10.331l0.063-0.19h6.189c0,3.163,0.83,5.504,2.491,7.022
	s3.835,2.276,6.522,2.276c2.412,0,4.301-0.671,5.665-2.015C546.188,226.932,546.87,225.128,546.87,222.864z"/>
<path fill="#FFFFFF" d="M588.612,193.188h-11.87v41.323H570.3v-41.323h-11.807v-4.888h30.119V193.188z"/>
<path fill="#FFFFFF" d="M624.323,217.786c0,5.479-1.418,9.749-4.253,12.806c-2.836,3.058-6.634,4.587-11.394,4.587
	c-4.697,0-8.433-1.529-11.204-4.587c-2.772-3.057-4.157-7.326-4.157-12.806v-12.695c0-5.459,1.391-9.733,4.173-12.822
	c2.782-3.09,6.512-4.635,11.188-4.635c4.739,0,8.531,1.545,11.378,4.635c2.846,3.089,4.269,7.363,4.269,12.822V217.786z
	 M617.912,204.995c0-4.02-0.805-7.072-2.412-9.156c-1.608-2.084-3.883-3.127-6.823-3.127c-2.899,0-5.121,1.043-6.666,3.127
	c-1.544,2.084-2.316,5.137-2.316,9.156v12.791c0,4.063,0.777,7.141,2.333,9.235c1.555,2.095,3.771,3.142,6.649,3.142
	c2.962,0,5.241-1.041,6.839-3.126c1.598-2.084,2.396-5.168,2.396-9.251V204.995z"/>
<path fill="#FFFFFF" d="M659.242,193.188h-11.87v41.323h-6.443v-41.323h-11.807v-4.888h30.12V193.188z"/>
</svg>
