<svg width="841.89" height="595.28" xmlns="http://www.w3.org/2000/svg" version="1.1">

 <g>
  <title>Layer 1</title>
  <g stroke="#ffffff" fill="#231f20" id="svg_1" enable-background="new">
   <g data-name="Layer" id="Layer-1">
    <path stroke="#000" id="svg_2" fill="#ffffff" d="m310.89371,246.18033l-47.594,60.543l-10.682,-30.271l-47.595,60.543l34.479,0l34.479,0l68.958,0l-32.045,-90.815z"/>
    <path stroke="#000" id="svg_3" fill="#ffffff" d="m384.073,296.66203l8.553,0l0,40.337l-8.553,0l0,-40.337z"/>
    <clipPath fill="#ffffff" stroke="#000" id="cp0">
     <path fill="#ffffff" stroke="#000" id="svg_4" d="m0,0.00003l841.89,0l0,595.28l-841.89,0l0,-595.28z"/>
    </clipPath>
    <g id="svg_5" clip-path="url(#cp0)">
     <path stroke="#000" id="svg_6" fill="#ffffff" d="m409.76761,314.56824l2.759,0c2.704,0 4.699,-0.451 5.987,-1.352c1.287,-0.901 1.931,-2.318 1.931,-4.249c0,-1.913 -0.658,-3.274 -1.972,-4.084c-1.316,-0.809 -3.353,-1.214 -6.112,-1.214l-2.593,0l0,10.899zm0,6.953l0,15.477l-8.553,0l0,-40.336l11.753,0c5.481,0 9.537,0.998 12.167,2.993c2.63,1.996 3.946,5.026 3.946,9.091c0,2.373 -0.654,4.483 -1.959,6.332c-1.306,1.848 -3.155,3.297 -5.546,4.346c6.07,9.067 10.024,14.926 11.864,17.574l-9.491,0l-9.629,-15.477l-4.552,0z"/>
     <path stroke="#000" id="svg_7" fill="#ffffff" d="m435.89301,349.09973c-1.924,0 -3.601,-0.204 -5.03,-0.61l0,-7.15c1.466,0.369 2.803,0.554 4.013,0.554c1.869,0 3.207,-0.587 4.013,-1.76c0.806,-1.174 1.21,-3.007 1.21,-5.502l0,-37.97l8.521,0l0,37.915c0,4.73 -1.072,8.333 -3.216,10.809c-2.144,2.476 -5.315,3.714 -9.511,3.714"/>
     <path stroke="#000" id="svg_8" fill="#ffffff" d="m524.50391,325.80554c0,3.631 -1.306,6.492 -3.92,8.583c-2.613,2.09 -6.249,3.136 -10.907,3.136c-4.291,0 -8.087,-0.807 -11.388,-2.421l0,-7.923c2.714,1.211 5.011,2.064 6.891,2.558c1.88,0.496 3.599,0.743 5.158,0.743c1.87,0 3.305,-0.357 4.304,-1.073c1,-0.714 1.5,-1.778 1.5,-3.191c0,-0.788 -0.22,-1.489 -0.66,-2.104c-0.441,-0.614 -1.087,-1.205 -1.94,-1.774c-0.852,-0.568 -2.59,-1.476 -5.212,-2.724c-2.458,-1.154 -4.301,-2.264 -5.529,-3.328c-1.229,-1.063 -2.21,-2.301 -2.944,-3.714c-0.733,-1.412 -1.1,-3.062 -1.1,-4.951c0,-3.558 1.206,-6.354 3.617,-8.39c2.411,-2.036 5.744,-3.054 9.999,-3.054c2.091,0 4.085,0.248 5.983,0.743c1.898,0.495 3.883,1.193 5.955,2.091l-2.75,6.629c-2.146,-0.88 -3.92,-1.494 -5.323,-1.843c-1.403,-0.347 -2.783,-0.522 -4.14,-0.522c-1.614,0 -2.852,0.376 -3.713,1.128c-0.862,0.752 -1.293,1.733 -1.293,2.943c0,0.752 0.174,1.408 0.522,1.967c0.349,0.559 0.904,1.1 1.665,1.623c0.76,0.522 2.562,1.463 5.405,2.819c3.759,1.798 6.335,3.599 7.729,5.406c1.394,1.807 2.091,4.021 2.091,6.643"/>
     <path stroke="#000" id="svg_9" fill="#ffffff" d="m549.51007,336.99863l-8.553,0l0,-33.219l-10.953,0l0,-7.118l30.459,0l0,7.118l-10.953,0l0,33.219z"/>
     <path stroke="#000" id="svg_10" fill="#ffffff" d="m573.11823,316.83682c0,4.487 0.852,7.866 2.555,10.137c1.703,2.271 4.249,3.406 7.637,3.406c6.794,0 10.192,-4.514 10.192,-13.543c0,-9.048 -3.379,-13.572 -10.137,-13.572c-3.388,0 -5.943,1.14 -7.665,3.421c-1.722,2.28 -2.582,5.663 -2.582,10.151m29.312,0c0,6.647 -1.648,11.758 -4.945,15.329c-3.296,3.572 -8.021,5.357 -14.175,5.357c-6.154,0 -10.879,-1.785 -14.175,-5.357c-3.297,-3.571 -4.945,-8.699 -4.945,-15.385c0,-6.684 1.652,-11.789 4.959,-15.315c3.305,-3.526 8.044,-5.288 14.216,-5.288c6.172,0 10.893,1.776 14.161,5.329c3.27,3.553 4.904,8.663 4.904,15.33"/>
     <path stroke="#000" id="svg_11" fill="#ffffff" d="m625.91388,336.99863l-8.553,0l0,-33.219l-10.953,0l0,-7.118l30.459,0l0,7.118l-10.953,0l0,33.219z"/>
     <path stroke="#000" id="svg_12" fill="#ffffff" d="m478.96619,320.29233l-5.276,-17.393l-5.193,17.393l10.469,0zm4.946,16.706l-2.913,-9.562l-14.645,0l-2.912,9.562l-9.178,0l14.178,-40.337l10.414,0l14.233,40.337l-9.177,0z"/>
     <path stroke="#000" id="svg_13" fill="#ffffff" d="m362.9632,314.53912l14.054,-17.877l-9.515,0l-16.615,21.135l2.948,8.354l3.817,-4.856l9.764,15.704l9.711,0l-14.164,-22.46z"/>
     <path stroke="#000" id="svg_14" fill="#ffffff" d="m455.94379,264.08682l2.759,0c2.704,0 4.699,-0.451 5.987,-1.352c1.287,-0.901 1.931,-2.318 1.931,-4.249c0,-1.913 -0.658,-3.274 -1.972,-4.084c-1.316,-0.809 -3.353,-1.214 -6.112,-1.214l-2.593,0l0,10.899zm0,6.953l0,15.477l-8.553,0l0,-40.336l11.753,0c5.481,0 9.537,0.998 12.167,2.993c2.63,1.996 3.946,5.026 3.946,9.091c0,2.373 -0.654,4.483 -1.959,6.332c-1.306,1.848 -3.155,3.297 -5.546,4.346c6.07,9.067 10.024,14.926 11.864,17.574l-9.491,0l-9.629,-15.477l-4.552,0z"/>
     <path stroke="#000" id="svg_15" fill="#ffffff" d="m427.3414,269.81094l-5.276,-17.393l-5.193,17.393l10.469,0zm4.946,16.706l-2.913,-9.562l-14.645,0l-2.912,9.562l-9.178,0l14.178,-40.337l10.414,0l14.233,40.337l-9.177,0z"/>
     <path stroke="#000" id="svg_16" fill="#ffffff" d="m384.314,269.81094l-5.276,-17.393l-5.193,17.393l10.469,0zm4.946,16.706l-2.913,-9.562l-14.645,0l-2.912,9.562l-9.178,0l14.178,-40.337l10.414,0l14.233,40.337l-9.177,0z"/>
     <path stroke="#000" id="svg_17" fill="#ffffff" d="m509.2515,269.81094l-5.276,-17.393l-5.193,17.393l10.469,0zm4.946,16.706l-2.913,-9.562l-14.645,0l-2.912,9.562l-9.178,0l14.178,-40.337l10.414,0l14.233,40.337l-9.177,0z"/>
     <path stroke="#000" id="svg_18" fill="#ffffff" d="m354.05209,246.18033l-9.624,27.275l-9.624,-27.275l-9.218,0l14.233,40.337l9.218,0l14.233,-40.337l-9.218,0z"/>
    </g>
   </g>
  </g>
 </g>
</svg>