<?xml version="1.0" encoding="UTF-8"?><svg id="Layer_6" xmlns="http://www.w3.org/2000/svg" viewBox="0 0 344 172"><defs><style>.cls-1{fill:#fff;}</style></defs><path class="cls-1" d="M182.72,52.25c3.52-1.74,7.21-4.52,7.77-8.68,.39-2.93-1-5.96-3.28-7.81-4.57-3.71-10.86-3.99-16.43-2.96-4.21,.78-8.35,2.43-12.09,4.48-3.24,1.78-6.31,4.05-8.79,6.79-3.79,4.17-7.16,10.46-4.29,16.02,1.44,2.79,4.47,4.41,7.43,5.07,4.23,.93,8.59,.44,12.85,0,2.26-.24,4.51-.48,6.78-.57,.99-.04,1.97-.04,2.96,.02,.45,.03,.89,.08,1.34,.12-.57-.05-.14-.02-.01,0,.32,.05,.64,.11,.96,.17,.7,.15,1.37,.36,2.05,.59,.18,.06,.62,.28-.02-.02,.15,.07,.3,.14,.45,.21,.31,.16,.62,.33,.91,.52,.07,.04,.38,.32,.45,.31-.07,0-.52-.46-.17-.12,.2,.2,.41,.4,.62,.6,.55,.55-.24-.45,.16,.2,.1,.16,.51,.68,.47,.86,0,0-.21-.65-.11-.24,.04,.16,.11,.31,.15,.47,.03,.11,.05,.22,.08,.32,.1,.33,.3,.47,.01-.11,.08,.16-.03,1.77,0,1.77-.07-.02,.13-.67-.03,.03-.03,.13-.06,.27-.1,.4-.09,.34-.21,.68-.34,1.01,.28-.72-.19,.33-.28,.51-.22,.41-.47,.8-.74,1.18-.09,.13-.18,.26-.28,.39-.46,.65,.38-.43-.14,.18-.27,.31-.54,.63-.82,.93-.61,.65-1.26,1.26-1.94,1.83-.16,.14-.33,.27-.5,.41,.4-.32,.06-.04-.02,.02-.35,.25-.69,.5-1.05,.74-.76,.51-1.56,.98-2.37,1.41-.36,.18-.72,.35-1.09,.52-.68,.32,.38-.1-.06,.02-.18,.05-.36,.14-.53,.2-.74,.26-1.48,.45-2.24,.6-.07,.02-.41,.06-.03,.01-.24,.03-.48,.05-.72,.07-.43,.04-.87,.05-1.3,.05-.35,0-.69-.03-1.03-.07,.82,.09-.32-.12-.57-.19-.57-.15,.51,.36,.06,.02-.06-.05-.21-.14-.28-.16-.48-.19,.34,.37,.15,.13-.07-.09-.18-.19-.27-.26-.39-.33,.25,.48,.14,.18-.04-.1-.13-.23-.19-.32-.28-.43,.13,.54,.09,.2-.02-.16-.09-.38-.14-.53-.14-.42,.06,.32,.03,.28-.06-.07-.03-.43-.03-.52,0-.17,.03-.35,.01-.52,.03,.19-.2,.9-.04,.39,.04-.12,.08-.24,.1-.36,.12-.51-.39,.75-.13,.29,.06-.11,.12-.23,.18-.34,.07-.12,.15-.23,.22-.35,.04-.06,.09-.12,.12-.18,.27-.42-.51,.59-.21,.27,.48-.51,.94-1.01,1.49-1.47,.09-.08,.19-.15,.28-.23,.32-.27-.3,.23-.29,.23,.18-.11,.35-.26,.52-.38,.42-.3,.85-.58,1.29-.85,.95-.59,1.94-1.12,2.94-1.62,.53-.26,1.07-.52,1.6-.76,.3-.14,.6-.27,.91-.4,.65-.29-.6,.24,.07-.03,.19-.08,.39-.16,.59-.24,1.5-.61,3.02-1.16,4.55-1.68,3.68-1.24,7.43-2.28,11.2-3.19,2.19-.53,4.4-1.02,6.61-1.47,1.49-.31,2.49-2.14,2.03-3.57-.51-1.58-1.97-2.36-3.57-2.03-7.64,1.58-15.32,3.47-22.56,6.43-4.02,1.65-8.63,3.59-11.57,6.94-1.17,1.33-2.04,2.84-2.13,4.65-.18,3.34,1.8,6.24,5.05,7.12,3.59,.98,7.54,.02,10.83-1.49,3.23-1.48,6.29-3.77,8.59-6.48,2.22-2.61,4.05-5.87,3.8-9.42-.24-3.25-1.9-5.95-4.65-7.69-3.07-1.95-6.99-2.42-10.54-2.37-4.46,.06-8.86,.86-13.31,1.08-1,.05-2,.07-3.01,.04-.48-.02-.96-.05-1.43-.09-.19-.02-.37-.04-.56-.06,.6,.08-.34-.07-.45-.1-.44-.09-.87-.2-1.3-.33-.21-.06-.42-.14-.62-.21-.78-.25,.23,.12-.11-.04-.24-.11-.47-.23-.69-.36-.14-.08-.28-.18-.42-.26-.51-.3-.03,.08,.07,.08-.13,0-.46-.41-.57-.52-.1-.11-.2-.23-.3-.33-.22-.22,.09-.17,.18,.24-.04-.17-.3-.45-.39-.61-.05-.1-.09-.24-.16-.32-.08-.1,.23,.71,.05,.09-.07-.23-.14-.46-.19-.7-.02-.09-.03-.2-.06-.29-.13-.55,.02,.75,.03,.18,0-.2-.16-1.44,.03-1.55-.07,.04-.15,.77,0,.12,.03-.11,.04-.22,.07-.33,.06-.28,.13-.56,.22-.83,.09-.29,.18-.57,.29-.85,.24-.64-.02,0-.01,0-.01,0,.23-.5,.24-.52,.29-.6,.62-1.18,.99-1.75,.19-.3,.39-.59,.59-.88,.08-.12,.17-.23,.26-.35,.19-.25,.18-.23-.05,.06,.09-.12,.19-.23,.28-.35,1.02-1.24,2.16-2.36,3.38-3.4,.19-.17,.4-.32,.59-.49,.07-.06,.43-.34,.03-.03,.35-.27,.71-.53,1.07-.78,.83-.58,1.68-1.13,2.56-1.63,3.53-2.05,7.11-3.47,11.19-4.27,.42-.08,.84-.15,1.26-.22-.62,.1-.08,0,.08,0,.2-.02,.4-.04,.6-.06,.82-.08,1.64-.11,2.46-.1,.64,.01,1.28,.1,1.92,.12,.43,.01-.74-.12-.11-.02,.15,.02,.3,.05,.46,.07,.32,.06,.64,.12,.95,.2,.53,.13,1.06,.28,1.57,.47,.14,.05,.29,.11,.43,.16,.36,.13-.22,.04-.28-.12,.04,.1,.64,.31,.76,.37,.38,.2,.75,.43,1.1,.67,.07,.04,.13,.1,.2,.14,.41,.28-.57-.51-.22-.17,.14,.14,.3,.26,.45,.4,.12,.12,.23,.24,.35,.36,.41,.43-.07,.08-.13-.19,.06,.27,.39,.58,.53,.83,.06,.11,.33,.85,.12,.21,.07,.22,.13,.45,.2,.66,.2,.61,.07-.35,.01-.01-.03,.15,0,.38,0,.53,.03,.62,.17-.36,.02-.04-.07,.13-.1,.36-.13,.51-.13,.62,.23-.31,.02,0-.1,.14-.16,.33-.25,.48-.09,.16-.23,.31-.3,.47-.12,.17-.09,.13,.1-.13-.1,.12-.21,.24-.31,.36-.28,.31-.58,.59-.9,.86-.13,.11-.26,.22-.4,.33,.48-.37-.25,.16-.29,.19-.81,.55-1.67,1.02-2.54,1.45-1.36,.67-1.85,2.72-1.04,3.97,.9,1.4,2.51,1.76,3.97,1.04"/><path class="cls-1" d="M303.36,139.35h8.64v-31.18h-8.64v31.18Zm-12.18-31.18l-8.47,20.31-8.3-20.31h-9.34l13.05,31.18h8.51l13.1-31.18h-8.56Zm-36.03,11.54c0,2.85-1.79,4.54-5.37,4.54h-4.8v-9.13h4.8c3.58,0,5.37,1.69,5.37,4.59m.09,19.64h9.26l-6.59-9.8c3.8-1.87,5.98-5.26,5.98-9.84,0-7.13-5.24-11.54-13.58-11.54h-13.97v31.18h8.65v-8.28h4.72l5.54,8.28Zm-44.32-12.56l3.93-9.98,3.93,9.98h-7.86Zm12.79,12.56h8.99l-13.54-31.18h-8.51l-13.49,31.18h8.82l2.4-6.06h12.92l2.4,6.06Zm-4.15-33.67c1.96,0,3.45-1.38,3.45-3.47s-1.48-3.52-3.45-3.52-3.45,1.43-3.45,3.52,1.49,3.47,3.45,3.47m-9.26,0c1.96,0,3.45-1.38,3.45-3.47s-1.48-3.52-3.45-3.52-3.45,1.43-3.45,3.52,1.48,3.47,3.45,3.47m-23.75,22.72c0,2.98-1.35,4.54-3.84,4.54-1.96,0-3.67-1.11-5.28-3.25l-4.71,5.7c2.36,2.99,6.16,4.59,10.61,4.59,7.68,0,11.79-4.01,11.79-12.11v-19.69h-8.5l-.06,20.22Zm-25.83-20.22v16.61l-13.49-16.61h-7.12v31.18h8.47v-16.61l13.49,16.61h7.12v-31.18h-8.47Zm-36.6,31.18h8.64v-31.18h-8.64v31.18Zm-27.28,0h23.23v-6.99h-14.58v-24.18h-8.65v31.18Zm-15.99,0h8.65v-31.18h-8.65v31.18Zm-15.99,0h8.65v-31.18h-8.65v31.18Zm-18.98,.62c9.08,0,13.54-4.63,13.54-10.07,0-11.49-17.34-7.93-17.34-12.69,0-1.56,1.31-2.81,4.93-2.81,2.66,0,5.55,.8,8.47,2.41l2.66-6.55c-3.01-1.78-7.12-2.72-11.09-2.72-9.08,0-13.54,4.54-13.54,10.11,0,11.58,17.38,7.97,17.38,12.92,0,1.51-1.4,2.54-4.98,2.54s-7.38-1.25-10.09-3.07l-2.84,6.5c2.88,2.05,7.86,3.43,12.88,3.43"/></svg>